<?xml version="1.0" encoding="utf-8"?>
<!-- Generator: Adobe Illustrator 22.1.0, SVG Export Plug-In . SVG Version: 6.00 Build 0)  -->
<svg version="1.1" id="Layer_1" xmlns="http://www.w3.org/2000/svg" xmlns:xlink="http://www.w3.org/1999/xlink" x="0px" y="0px"
	 viewBox="0 0 44 44" style="enable-background:new 0 0 44 44;" xml:space="preserve">
<style type="text/css">
	.st0{fill:none;}
</style>
<title>instagram</title>
<desc>Created with Sketch.</desc>
<g id="instagram">
	<g id="Instagram">
		<g id="Group-3">
			<rect id="Rectangle-7" class="st0" width="44" height="44"/>
			<path id="Shape" d="M22,10c-3.3,0-3.7,0-4.9,0.1c-1.3,0.1-2.1,0.3-2.9,0.6c-0.8,0.3-1.5,0.7-2.1,1.4c-0.7,0.7-1.1,1.3-1.4,2.1
				c-0.3,0.8-0.5,1.6-0.6,2.9C10,18.3,10,18.7,10,22s0,3.7,0.1,4.9c0.1,1.3,0.3,2.1,0.6,2.9c0.3,0.8,0.7,1.5,1.4,2.1
				c0.7,0.7,1.3,1.1,2.1,1.4c0.8,0.3,1.6,0.5,2.9,0.6C18.3,34,18.7,34,22,34c3.3,0,3.7,0,4.9-0.1c1.3-0.1,2.2-0.3,2.9-0.6
				c0.8-0.3,1.5-0.7,2.1-1.4c0.7-0.7,1.1-1.3,1.4-2.1c0.3-0.8,0.5-1.6,0.6-2.9C34,25.7,34,25.3,34,22s0-3.7-0.1-4.9
				c-0.1-1.3-0.3-2.1-0.6-2.9c-0.3-0.8-0.7-1.5-1.4-2.1c-0.7-0.7-1.3-1.1-2.1-1.4c-0.8-0.3-1.6-0.5-2.9-0.6C25.7,10,25.3,10,22,10
				L22,10z M20.9,12.2c0.3,0,0.7,0,1.1,0c3.2,0,3.6,0,4.8,0.1c1.2,0.1,1.8,0.2,2.2,0.4c0.6,0.2,1,0.5,1.4,0.9
				c0.4,0.4,0.7,0.8,0.9,1.4c0.2,0.4,0.4,1.1,0.4,2.2c0.1,1.3,0.1,1.6,0.1,4.8s0,3.6-0.1,4.8c-0.1,1.2-0.2,1.8-0.4,2.2
				c-0.2,0.6-0.5,1-0.9,1.4c-0.4,0.4-0.8,0.7-1.4,0.9c-0.4,0.2-1.1,0.4-2.2,0.4c-1.3,0.1-1.6,0.1-4.8,0.1c-3.2,0-3.6,0-4.8-0.1
				c-1.2-0.1-1.8-0.2-2.2-0.4c-0.6-0.2-1-0.5-1.4-0.9s-0.7-0.8-0.9-1.4c-0.2-0.4-0.4-1.1-0.4-2.2c-0.1-1.3-0.1-1.6-0.1-4.8
				s0-3.6,0.1-4.8c0.1-1.2,0.2-1.8,0.4-2.2c0.2-0.6,0.5-1,0.9-1.4s0.8-0.7,1.4-0.9c0.4-0.2,1.1-0.4,2.2-0.4
				C18.3,12.2,18.7,12.2,20.9,12.2L20.9,12.2z M28.4,14.2c-0.8,0-1.4,0.6-1.4,1.4c0,0.8,0.6,1.4,1.4,1.4s1.4-0.6,1.4-1.4
				C29.8,14.8,29.2,14.2,28.4,14.2L28.4,14.2z M22,15.8c-3.4,0-6.2,2.8-6.2,6.2s2.8,6.2,6.2,6.2s6.2-2.8,6.2-6.2S25.4,15.8,22,15.8
				L22,15.8z M22,18c2.2,0,4,1.8,4,4c0,2.2-1.8,4-4,4c-2.2,0-4-1.8-4-4C18,19.8,19.8,18,22,18L22,18z"/>
		</g>
	</g>
</g>
</svg>
